# xmcd
#
# Track frame offsets:
#	150
#	21425
#	37292
#	56582
#	71732
#	86205
#	102945
#	116785
#	131692
#	143702
#
# Disc length: 2823 seconds
#
# Revision: 1
# Processed by: cddbd v1.5PL3 Copyright (c) Steve Scherf et al.
# Submitted via: audiograbber 1.82.02
#
DISCID=9a0b050a
DTITLE=Jared Osmond - Feed This Fire
DYEAR=1995
DGENRE=
TTITLE0=Feed This Fire
TTITLE1=Everybody Wants to Ride
TTITLE2=The Man Up-Stairs
TTITLE3=I Won't Run Away
TTITLE4=You Can't Take It  With You
TTITLE5=This Time I Know Where I'm Gonna' Fall
TTITLE6=Goodbye Only Comes in Blue
TTITLE7=In My Dreams
TTITLE8=Hard Baby to Rock
TTITLE9=No Ordinary Memory
EXTD=
EXTT0=
EXTT1=
EXTT2=
EXTT3=
EXTT4=
EXTT5=
EXTT6=
EXTT7=
EXTT8=
EXTT9=
PLAYORDER=
